PathFileType	4	(X/Y/Z)	Kaydara	
DataRate	CameraRate	NumFrames	NumMarkers	Units	OrigDataRate	OrigDataStartFrame	OrigNumFrames	
240.00	240.00	4	72	mm	240.00	178	355	
Frame#	Time	Hips			RightUpLeg			RightLeg			RightFoot			RightFoot_End			LeftUpLeg			LeftLeg			LeftFoot			LeftFoot_End			Spine			Spine1			Spine2			Spine3			Neck			Head			Head_End			RightShoulder			RightArm			RightForeArm			RightHand			RightHandThumb1			RightHandThumb2			RightHandThumb3			RightHandThumb3_End			RightInHandIndex			RightHandIndex1			RightHandIndex2			RightHandIndex3			RightHandIndex3_End			RightInHandMiddle			RightHandMiddle1			RightHandMiddle2			RightHandMiddle3			RightHandMiddle3_End			RightInHandRing			RightHandRing1			RightHandRing2			RightHandRing3			RightHandRing3_End			RightInHandPinky			RightHandPinky1			RightHandPinky2			RightHandPinky3			RightHandPinky3_End			LeftShoulder			LeftArm			LeftForeArm			LeftHand			LeftHandThumb1			LeftHandThumb2			LeftHandThumb3			LeftHandThumb3_End			LeftInHandIndex			LeftHandIndex1			LeftHandIndex2			LeftHandIndex3			LeftHandIndex3_End			LeftInHandMiddle			LeftHandMiddle1			LeftHandMiddle2			LeftHandMiddle3			LeftHandMiddle3_End			LeftInHandRing			LeftHandRing1			LeftHandRing2			LeftHandRing3			LeftHandRing3_End			LeftInHandPinky			LeftHandPinky1			LeftHandPinky2			LeftHandPinky3			LeftHandPinky3_End			
		X1	Y1	Z1	X2	Y2	Z2	X3	Y3	Z3	X4	Y4	Z4	X5	Y5	Z5	X6	Y6	Z6	X7	Y7	Z7	X8	Y8	Z8	X9	Y9	Z9	X10	Y10	Z10	X11	Y11	Z11	X12	Y12	Z12	X13	Y13	Z13	X14	Y14	Z14	X15	Y15	Z15	X16	Y16	Z16	X17	Y17	Z17	X18	Y18	Z18	X19	Y19	Z19	X20	Y20	Z20	X21	Y21	Z21	X22	Y22	Z22	X23	Y23	Z23	X24	Y24	Z24	X25	Y25	Z25	X26	Y26	Z26	X27	Y27	Z27	X28	Y28	Z28	X29	Y29	Z29	X30	Y30	Z30	X31	Y31	Z31	X32	Y32	Z32	X33	Y33	Z33	X34	Y34	Z34	X35	Y35	Z35	X36	Y36	Z36	X37	Y37	Z37	X38	Y38	Z38	X39	Y39	Z39	X40	Y40	Z40	X41	Y41	Z41	X42	Y42	Z42	X43	Y43	Z43	X44	Y44	Z44	X45	Y45	Z45	X46	Y46	Z46	X47	Y47	Z47	X48	Y48	Z48	X49	Y49	Z49	X50	Y50	Z50	X51	Y51	Z51	X52	Y52	Z52	X53	Y53	Z53	X54	Y54	Z54	X55	Y55	Z55	X56	Y56	Z56	X57	Y57	Z57	X58	Y58	Z58	X59	Y59	Z59	X60	Y60	Z60	X61	Y61	Z61	X62	Y62	Z62	X63	Y63	Z63	X64	Y64	Z64	X65	Y65	Z65	X66	Y66	Z66	X67	Y67	Z67	X68	Y68	Z68	X69	Y69	Z69	X70	Y70	Z70	X71	Y71	Z71	X72	Y72	Z72	

178	0.738	1921.0129	906.651	56.2195	1971.1255885057926	879.9990556097405	-6.092951071433013	1894.2953112811995	475.42112167312814	-78.50282319991267	1927.8287021230374	103.0102455965723	-171.9408584605556	1853.6628549665654	25.305551728324996	-13.86869362085866	1878.6210537948975	904.563141727301	130.21848827623182	1820.1646204439264	502.2584598947794	230.55707029686823	1760.1124472688675	71.35467043759807	294.1873271943462	1632.9129454904444	-9.558106181848816	177.1430277488908	1884.7605206986195	1035.3227455998192	5.6754772720748665	1836.5292014424238	1105.1279625463371	-41.067681187816206	1781.0676476301378	1172.3733592768542	-91.47608896996354	1720.5341192714425	1227.4177674272507	-142.51431777479158	1655.2665673604138	1286.1612588051867	-196.37031668330502	1594.7633397770546	1339.582726094732	-244.40314510338203	1473.3208738339533	1431.7879815968265	-289.9348028503535	1691.3197974761647	1262.4886010671403	-199.6056145948568	1728.079998748815	1243.5132536691247	-292.96427156402837	1732.828195931634	1016.3085925417245	-254.87641145154822	1750.8969566300593	863.9731139342073	-310.7390690869518	1757.642364468432	865.9242316070605	-325.1402961870302	1750.574212079338	861.2600935300404	-336.0096713065925	1745.3761249421736	855.4594165006753	-342.4422650740306	1740.8067371730724	848.4399782222941	-346.83230354564733	1758.7127178831515	856.749886059819	-322.60318018010906	1763.3962867322048	837.1223718890141	-335.57923107393833	1758.962445036736	824.5482277235091	-343.45097560269807	1751.844406640506	820.9285946979794	-347.6281960697537	1743.010819002966	820.764098027263	-350.602293381224	1757.433832252796	850.5420035496546	-319.0044646696349	1761.3124887258202	828.0397598558328	-329.7146940939331	1756.2807384453079	813.5647654832298	-337.7859575450425	1747.6001911139697	808.8359528304002	-342.5768656522803	1737.889492530839	808.4800659159317	-345.7101315806353	1756.4880300440138	846.6253906449331	-316.1377525524826	1759.3690501407348	822.9665159331701	-323.26797196447916	1754.778565370791	809.6151051535024	-329.7561246971317	1746.2967210461784	804.663497963336	-334.0869561280773	1737.1146700469385	804.1439273064793	-336.8954115412501	1754.6537412350044	842.9288888259941	-312.40334092101114	1756.4260698881358	818.8378395411484	-316.66825853367015	1752.417551290996	807.1033239722377	-320.97952788460196	1746.0699552559122	802.9869725988959	-323.71074034893115	1737.8435420166584	802.2362965905011	-325.9524136721963	1662.3624037256486	1271.5517245713377	-156.13093110822035	1626.9875445518935	1241.9318674991446	-64.48367989099101	1707.288245131546	1049.9944258820183	-157.00059902111042	1778.116024348041	890.7170834857468	-235.1228458306414	1766.1132273447993	894.8883722137475	-250.7767347603311	1762.0407613238842	881.9916236712972	-272.60133116779963	1759.708082887361	870.2722767852418	-287.3475516695248	1758.1940672140563	858.1600365665878	-299.253790587393	1765.9650373343522	886.2983353589808	-250.08202446432253	1752.9497429829732	865.7405742376104	-273.4710273347148	1748.4404864399262	846.9345124909122	-292.4667177041646	1748.7334430379128	836.598391041286	-304.32257274255113	1751.0644999239983	828.957583494598	-314.166855510391	1768.0033592114473	879.3529266038296	-248.16665634759124	1756.4098639859574	855.546010262934	-269.94278296576834	1751.8062185540798	834.1694837682455	-290.3456572204898	1752.3117075355399	821.288873281516	-304.4932578553934	1754.9362305186553	812.7289010911636	-315.1888216170706	1769.7300808936973	874.9942951834796	-246.19068172344046	1760.7058503597482	849.944283780427	-263.9153313753795	1757.03592486836	830.4754081072172	-281.33213534995065	1757.7054676486214	817.6065345755111	-294.78402439980704	1760.2594175367285	809.3473696229078	-304.74833711069425	1772.4555724769998	870.3796016367648	-243.43980330763296	1765.702039405725	844.6318312733779	-257.92143294597753	1763.337523958032	827.8451024273485	-271.21940770233715	1764.1036694662816	817.8795675787308	-280.7174501048429	1766.5259125944324	810.2301173539222	-289.36359661950235
179	0.742	1921.0129	906.651	56.2195	1970.7595295812393	879.8597077665561	-6.176495235408768	1893.992589816001	475.23678133044314	-78.37738437612445	1928.1210733401967	102.97557902658093	-172.06632207788596	1853.966207821383	25.246715298983045	-14.001215762867503	1878.9719880380476	904.6987186025799	130.3026760509842	1820.5862063153759	502.40815049363925	230.72738450453076	1760.272650109859	71.51254908930885	294.1191574097008	1633.156706681973	-9.486885110824186	177.04958474241053	1884.8375911240614	1035.344475197898	5.677052515877409	1836.6114030128444	1105.1913090967253	-41.00902885718915	1781.1500620315862	1172.4875514755208	-91.34522764091976	1720.6075418444666	1227.5890674770992	-142.2966532861745	1655.3293937352141	1286.3903406126813	-196.06028108222262	1594.8202360809335	1339.866817710763	-244.00742405201282	1473.332653456549	1432.0504641523842	-289.4413245564399	1691.2770748470034	1262.6274484372477	-199.30579611938776	1727.637869641629	1243.4242830519324	-292.37945217497924	1732.277765746491	1016.8688102087226	-253.82389866187194	1751.1358684068293	866.0891915845336	-309.02175625504515	1757.9238489530335	868.2281032139163	-323.40325464111316	1750.9210266207247	863.6325236991286	-334.21147275701554	1745.7600275837913	857.8734180839502	-340.5993618268132	1741.214367556522	850.8833594473602	-344.95032206009733	1758.9633994414708	859.0623075842017	-320.85986855343816	1763.6535855353718	839.6537728969746	-333.7747992072641	1759.2487844101597	827.1602346445358	-341.5873114066826	1752.1685489532335	823.5393467555792	-345.7250094356234	1743.379570993618	823.3391664306063	-348.6645705119286	1757.6625784174435	852.8266104099441	-317.25673395735055	1761.5358198200777	830.5229243460745	-327.9049642416027	1756.5328743978953	816.1314203816337	-335.91118612673336	1747.8965489995048	811.3989475933103	-340.6542162852361	1738.2339860406933	811.0029686599559	-343.74959920306554	1756.7008092239093	848.8854876799601	-314.38860309249264	1759.5622311092234	825.3854287148712	-321.4624449910844	1754.9939168967894	812.1018966908471	-327.8935900359379	1746.553170109161	807.1441641571414	-332.17807001194205	1737.4156392223842	806.5856679131459	-334.9508238643057	1754.8503015722767	845.1486279855586	-310.65319311531204	1756.5936489452763	821.1808908826375	-314.86625227822617	1752.5983861974128	809.4924036075754	-319.13161818968905	1746.2785918514694	805.3675553494982	-321.8288997873463	1738.090368365396	804.5800791811112	-324.03887797971856	1662.5436372029008	1271.8341777852158	-155.87630588587723	1627.6186201134394	1242.6617396268896	-64.29700894031978	1707.5397017724167	1050.5543396801759	-156.1927359534462	1778.4822345561897	892.1385390143053	-232.88426594158562	1766.4678331180467	896.4015746828244	-248.4173294413077	1762.4014407831758	883.5463471203034	-270.0388872106063	1760.086403476138	871.8472705993926	-284.63864574665865	1758.5985738574846	859.7445377215502	-296.41845494955743	1766.3694623302401	887.7926952346802	-247.6977938711733	1753.4502278567397	867.2981756829463	-270.82635259470635	1748.9928889941823	848.5162500396458	-289.61728098450357	1749.2915473272803	838.1863599586312	-301.35726013782573	1751.6094009586127	830.5447878183613	-311.11333473042555	1768.4402197310112	880.8206321153023	-245.7766019580764	1756.9579616827018	857.0609879766434	-267.29555866894475	1752.414920032062	835.7070563868792	-287.4750478415791	1752.929185678657	822.8321619937141	-301.48286789994563	1755.540181595932	814.2704814918222	-312.08193194440787	1770.1876623531584	876.441715194069	-243.80331608995803	1761.2818664790404	851.4169231242447	-261.30027347797113	1757.6686212468364	831.9638315868966	-278.52282310143437	1758.3486785805817	819.0983975255418	-291.8401261837523	1760.890878812079	810.8366437069882	-301.71381537678286	1772.93221643431	871.8005636255443	-241.0618687915871	1766.2999628485818	846.0601628804875	-255.34090738302933	1763.9863391574975	829.2798688315005	-268.4850270754307	1764.76281171449	819.3138435218322	-277.8857227383428	1767.1761819619494	811.6603688995149	-286.4520648694536
180	0.746	1921.0129	906.651	56.2195	1970.3325949605444	879.6763587694513	-6.327123003094835	1893.6294486330198	475.0082807627159	-78.3166525878072	1928.3402987053719	102.89640139069235	-172.2511732818906	1854.1953615434645	25.14585800678007	-14.192403522078317	1879.3855418128067	904.8794301390095	130.45549312659847	1821.085750852891	502.59655202395487	230.94773569108477	1760.5211234101453	71.71082515646576	294.11099271627165	1633.488645014524	-9.375843574923728	177.01668973913598	1884.9081695701407	1035.362412178884	5.67408149075877	1836.6842650399467	1105.2480668769222	-40.95635038042492	1781.224836849765	1172.5934461558265	-91.22417303336378	1720.6854363513223	1227.754830557688	-142.09813453742342	1655.4094676208551	1286.6172410806503	-195.77900326698534	1594.9056761308022	1340.151794263967	-243.64926317719082	1473.3888223255358	1432.3244810366477	-289.0026883535044	1691.2567531607378	1262.7769948800092	-199.01863236363226	1727.1714655809908	1243.271084436153	-291.85452158303013	1731.73022210982	1017.3666024586347	-252.79237602507624	1750.244339231722	868.3311817483906	-307.7545354654459	1757.0734831051298	870.6560919990208	-322.1213089089963	1750.1327743562344	866.1259387980643	-332.8682012324753	1745.0062500275785	860.406018567786	-339.2107492991276	1740.4818205649271	853.4431763976356	-343.52165714504093	1758.0807903127109	861.4979788179606	-319.5706864419495	1762.7717436385071	842.3034635104528	-332.4268559285049	1758.3917757828015	829.886915550351	-340.17945329029334	1751.3474085423845	826.2629853884381	-344.2761693285006	1742.6019019747253	826.0259544938506	-347.1792853947475	1756.7572162830297	855.2340747268815	-315.9615278509578	1760.6188937949473	833.1238981736251	-326.54919292114573	1755.6400722819963	818.8119029308829	-334.48940617016103	1747.0455947674175	814.073598152628	-339.18269008275536	1737.4298998218378	813.6362407181605	-342.2380511308546	1755.7790479141688	851.2682923940889	-313.09080598136666	1758.6149820669987	827.922391492599	-320.1085973771038	1754.0646766974176	814.7032403917758	-326.48166112780655	1745.6626939317116	809.7372713652323	-330.7178653733586	1736.5684713215194	809.1386324849813	-333.45284854674986	1753.9120138248163	847.491050245898	-309.35281311648066	1755.6207761525343	823.6423343024277	-313.5134087396635	1751.635336326903	811.997049546887	-317.7316523345519	1745.3415919472939	807.8621530451483	-320.39342391162637	1737.1904559755194	807.0367920243268	-322.56977541511475	1662.7275744143842	1272.0985950977874	-155.66035873237632	1628.2737950273374	1243.4036060817857	-64.12408830005381	1707.8586814249966	1051.13949568791	-155.35468188719815	1778.0455055583393	893.3388802802444	-231.24860198718648	1766.0106706243387	897.6918324784381	-246.6544225602255	1761.9411060217064	884.8794752972746	-268.06938272888743	1759.6382777205072	873.201869511106	-282.51988990792813	1758.1729610600607	861.109865172334	-294.1706784552409	1765.9651510929684	889.0646077552732	-245.90783376640394	1753.1357898929557	868.6334097309664	-268.76384284774576	1748.7247726386368	849.8770965968664	-287.3443751727706	1749.0246033912865	839.5549178663532	-298.9676999547568	1751.3247998748195	831.9141858221868	-308.6367612053044	1768.0712268994332	882.0666619799005	-243.98052524249456	1756.695734478785	858.3547856612498	-265.2303463281277	1752.2075874070067	837.0251623279538	-285.1803058177654	1752.7253582822466	824.157819931512	-299.04740918829026	1755.3180463152437	815.5962121239073	-309.5512792086422	1769.8416044906917	877.6679903629461	-242.0099970630287	1761.0522114261198	852.6692837063595	-259.26850174467506	1757.4910844446238	833.2335764003856	-276.291465852881	1758.1767934181453	820.3734094495154	-289.4732936766446	1760.7028523350282	812.1107656506539	-299.2575943852934	1772.6078063993905	873.0010903914201	-239.278669366544	1766.0966228622276	847.2692491075226	-253.34555971574315	1763.8308926100274	830.4968296308613	-266.33163931950475	1764.6144624587403	820.5317243699335	-275.6343784663995	1767.0152511550662	812.8757763909235	-284.122034176111
181	0.75	1921.0129	906.651	56.2195	1969.8373153275495	879.4426593336705	-6.554816150567649	1893.1972427938076	474.72934856907773	-78.32954315268256	1928.4886781138002	102.76668148576253	-172.50598477370409	1854.3536968561903	24.995421958714296	-14.453037330845794	1879.869491955448	905.111914015548	130.6874140266166	1821.6622382869991	502.8313462004192	231.22746517906552	1760.8582023692647	71.95768169055229	294.1745137732524	1633.9082391499844	-9.217265276492236	177.05730202139233	1884.9710326892584	1035.375449140921	5.66471312526996	1836.7446554443284	1105.296510229484	-40.91065311200652	1781.2863333364494	1172.68824941915	-91.11289538020725	1720.759342811685	1227.912076293268	-141.91607262025835	1655.4949990429286	1286.8386301232904	-195.5207468733369	1595.0048521880826	1340.434017440845	-243.32005161585911	1473.4706957538401	1432.6054752180603	-288.6032452325866	1691.2458821499877	1262.930995872605	-198.74228450945301	1726.6982338505163	1243.0986481015948	-291.3448164801375	1731.1909601847797	1017.845145307539	-251.75998905446764	1747.8641958855321	870.5020926447695	-306.9350145036083	1754.7322478600488	873.0103115926664	-321.29255290883447	1747.8498181370614	868.5420086969192	-331.97700829165086	1742.7547204328982	862.8585834168681	-338.2727013671929	1738.2486572794887	855.9205418927726	-342.5416612540475	1755.7057354622725	863.8588800864724	-318.7330559537208	1760.3902656064827	844.8721313627982	-331.53138859649835	1756.0302071258955	832.5283878028248	-339.22198382552506	1749.019554448288	828.8995524209611	-343.27545287379957	1740.3163519604502	828.6246269505262	-346.13959656111473	1754.3586356253545	857.5664450917346	-315.11569630580954	1758.2013161549075	835.6435073125102	-325.64252086448266	1753.2411660903172	821.4064288383757	-333.5141549133913	1744.6859030777925	816.6600357387931	-338.1548188898053	1735.1157808361636	816.1801536888921	-341.1673250872867	1753.363699381654	853.5759319829466	-312.24084549529556	1756.1671532588923	830.378492719773	-319.2010727269768	1751.6300343301596	817.2197091911007	-325.5135133279735	1743.264238338787	812.2433185931915	-329.6985105882865	1734.212089192351	811.6034554945007	-332.3929845066737	1751.479962371998	849.7584379294049	-308.4982890306616	1753.1475956531406	826.0235826222726	-312.6038879771792	1749.1680431231516	814.4182910310003	-316.7725138526637	1742.8984313127437	810.2717560324268	-319.39641297751473	1734.7832660125325	809.4075537869704	-321.5365837603279	1662.9060079093251	1272.3449466569878	-155.4754366165992	1628.94885890864	1244.1659235064399	-63.950720470723816	1708.2492060596767	1051.7608299528567	-154.4674727451979	1776.4771537299425	894.0533193118472	-230.31013840981893	1764.4193788343466	898.49803882339	-245.58499883331612	1760.3412936656405	885.7336203469681	-266.7931958838572	1758.0472402765183	874.081369050415	-281.0944464008037	1756.601813932044	862.0036299089799	-292.61630252183363	1764.427855124144	889.8537310756417	-244.81100486783504	1751.6858355716522	869.4926571624743	-267.390351252492	1747.3175223284968	850.7675951452462	-285.7597296961046	1747.6152166487345	840.4563141561867	-297.2673150196514	1749.8943034078554	832.8188467221404	-306.85105828012246	1766.5700250568761	882.830668015861	-242.87811770315767	1755.2992545358027	859.173608724302	-263.8550803594248	1750.862160153354	837.8745228459119	-283.5747675474539	1751.3794960877415	825.0186179151377	-297.302301889588	1753.95012470218	816.4597543424135	-307.71284866724574	1768.363972113698	878.4126027694628	-240.91080839467926	1759.6897598245034	853.4465938198058	-257.92786116949145	1756.1775160739417	834.0337746720685	-274.7506899111587	1756.8651382365344	821.1826608061685	-287.7981988962785	1759.3715570807985	812.921654485987	-297.49489697401407	1771.1524674460916	873.7202179846881	-238.19042075658183	1764.7616973561544	848.0031475522088	-252.04284606960195	1762.5414512270336	831.2430900816554	-264.87060636873264	1763.3294817006688	821.2817044155196	-274.07630905648875	1765.7146375491473	813.6255480795826	-282.48690490515736
